# xmcd
#
# Track frame offsets:
# 150
# 16966
# 37271
# 52733
# 64379
# 78010
# 95696
# 113743
# 126858
# 144329
# 158189
# 173022
#
# Disc length: 2579 seconds
#
# Revision: 0
# Processed by: cddbd v1.5.2PL0 Copyright (c) Steve Scherf et al.
# Submitted via: Audion 3.0.2 (http://www.panic.com/audion/)
#
DISCID=970a110c
DTITLE=Christian Schenker and Grüüveli Tüüfeli - Rübis and Stübis
DYEAR=1900
DGENRE=
TTITLE0=Dr. Schlotterchnöi
TTITLE1=Rübis and Stübis
TTITLE2=Blöffer
TTITLE3=Ball
TTITLE4=Farbeparadies
TTITLE5=Buureregle
TTITLE6=Rüeblitortesuppe
TTITLE7=Plunder
TTITLE8=Nei!!
TTITLE9=Herr Nörgeli
TTITLE10=Usred
TTITLE11=Füür
EXTD=
EXTT0=
EXTT1=
EXTT2=
EXTT3=
EXTT4=
EXTT5=
EXTT6=
EXTT7=
EXTT8=
EXTT9=
EXTT10=
EXTT11=
PLAYORDER=
